# xmcd
#
# Track frame offsets:
#	150
#	14864
#	29656
#	49586
#	67940
#	81807
#	104076
#	116829
#	134511
#	147299
#	167426
#	181690
#	200802
#
# Disc length: 2919 seconds
#
# Revision: 0
# Processed by: cddbd v1.5.2PL0 Copyright (c) Steve Scherf et al.
# Submitted via: EasyCDDAExtractor 10.0.2.1
#
DISCID=bf0b650d
DTITLE=Frank Schwinn - Songs of Hope Desperation and Love
DYEAR=2010
DGENRE=Blues
TTITLE0=More Time to Hang Around
TTITLE1=No Baby Blues
TTITLE2=Much too Beautiful 
TTITLE3=Go Down to the River
TTITLE4=Why Do You Accuse Me
TTITLE5=Living in this Country
TTITLE6=Devil Woman
TTITLE7=Christmas Blues
TTITLE8=Don´t Stifle Me
TTITLE9=You Gotta Quit Him
TTITLE10=Monkey on My Back
TTITLE11=Troubled Man
TTITLE12=In Love with a Woman
EXTD=
EXTT0=
EXTT1=
EXTT2=
EXTT3=
EXTT4=
EXTT5=
EXTT6=
EXTT7=
EXTT8=
EXTT9=
EXTT10=
EXTT11=
EXTT12=
PLAYORDER=
